<?xml version="1.0" standalone="no"?>
<!DOCTYPE svg PUBLIC "-//W3C//DTD SVG 20010904//EN"
 "http://www.w3.org/TR/2001/REC-SVG-20010904/DTD/svg10.dtd">
<svg version="1.0" xmlns="http://www.w3.org/2000/svg"
 width="700.000000pt" height="700.000000pt" viewBox="0 0 700.000000 700.000000"
 preserveAspectRatio="xMidYMid meet">
<metadata>
Created by potrace 1.14, written by Peter Selinger 2001-2017
</metadata>
<g transform="translate(0.000000,700.000000) scale(0.100000,-0.100000)"
fill="#000000" stroke="none">
<path d="M3540 6843 c-8 -4 -70 -32 -137 -64 -67 -32 -144 -68 -170 -80 -26
-12 -104 -48 -172 -80 -68 -33 -125 -59 -126 -59 -2 0 -56 -25 -121 -56 -66
-31 -211 -99 -324 -151 -113 -53 -243 -114 -290 -136 -47 -21 -112 -52 -145
-67 -102 -47 -258 -120 -303 -143 -45 -22 -59 -49 -48 -89 4 -13 49 -59 101
-102 52 -44 103 -86 112 -95 10 -9 47 -41 83 -70 36 -30 67 -57 70 -60 3 -3
44 -39 93 -79 l87 -73 1 -52 c1 -29 3 -63 5 -77 1 -14 6 -113 9 -220 10 -330
14 -444 19 -470 3 -14 8 -45 11 -70 2 -25 7 -58 10 -75 3 -16 8 -39 9 -50 2
-11 12 -51 21 -90 9 -38 18 -79 20 -89 11 -48 59 -205 90 -291 174 -480 462
-857 755 -987 25 -11 52 -23 61 -28 39 -20 192 -50 269 -53 252 -9 489 90 706
296 309 292 545 776 624 1279 20 129 24 184 21 328 -7 341 -7 334 19 455 5 22
11 65 15 95 6 51 11 59 68 113 101 95 331 314 340 323 4 4 7 -204 7 -463 l0
-470 -47 -22 c-65 -30 -107 -70 -138 -130 -103 -196 48 -428 271 -416 205 10
332 232 239 415 -27 54 -106 126 -147 135 -15 4 -31 11 -34 16 -3 6 -6 256 -6
557 0 301 -4 557 -9 570 -6 15 -31 33 -71 51 -35 16 -108 50 -163 76 -55 26
-167 78 -250 115 -82 38 -186 85 -230 105 -44 21 -109 51 -145 67 -36 17 -92
43 -125 58 -33 15 -91 42 -130 60 -189 86 -429 197 -505 232 -256 120 -266
124 -300 111z"/>
<path d="M2785 2958 c-11 -5 -78 -95 -150 -200 -71 -104 -139 -194 -150 -198
-19 -7 -186 -43 -248 -54 -15 -3 -35 -7 -45 -10 -9 -3 -30 -8 -47 -11 -16 -3
-39 -8 -50 -10 -93 -21 -265 -57 -285 -61 -14 -3 -75 -16 -137 -29 -61 -14
-122 -26 -135 -29 -13 -2 -149 -31 -303 -64 -154 -33 -307 -65 -340 -72 -87
-16 -113 -29 -122 -58 -5 -15 -8 -465 -8 -1001 l1 -973 23 -19 c23 -19 92 -19
2711 -19 2613 0 2688 1 2711 19 l23 19 0 911 c0 891 0 912 -19 930 -11 10
-302 113 -655 231 -905 302 -829 274 -869 323 -18 23 -50 62 -71 87 -21 25
-82 97 -135 160 -105 126 -130 145 -168 131 -15 -6 -111 -122 -240 -288 -119
-153 -220 -282 -225 -288 -4 -5 -32 -41 -62 -80 -157 -203 -204 -263 -228
-292 l-27 -31 -112 161 c-62 89 -180 259 -262 377 -82 118 -176 253 -208 299
-102 147 -120 162 -168 139z"/>
</g>
</svg>
