<svg width="74" height="74" viewBox="0 0 74 74" fill="none" xmlns="http://www.w3.org/2000/svg">
<circle cx="37" cy="37" r="37" fill="#FFF2D8"/>
<g clip-path="url(#clip0_29_58)">
<path d="M42.375 34.7885C45.6258 34.7885 48.2304 32.1643 48.2304 28.9135C48.2304 25.6626 45.6258 23.0385 42.375 23.0385C39.1242 23.0385 36.5 25.6626 36.5 28.9135C36.5 32.1643 39.1242 34.7885 42.375 34.7885ZM26.7083 34.7885C29.9592 34.7885 32.5637 32.1643 32.5637 28.9135C32.5637 25.6626 29.9592 23.0385 26.7083 23.0385C23.4575 23.0385 20.8333 25.6626 20.8333 28.9135C20.8333 32.1643 23.4575 34.7885 26.7083 34.7885ZM26.7083 38.7051C22.1454 38.7051 13 40.9964 13 45.5593V50.4551H40.4167V45.5593C40.4167 40.9964 31.2712 38.7051 26.7083 38.7051ZM42.375 38.7051C41.8071 38.7051 41.1608 38.7443 40.4754 38.803C42.7471 40.448 44.3333 42.661 44.3333 45.5593V50.4551H56.0833V45.5593C56.0833 40.9964 46.9379 38.7051 42.375 38.7051Z" fill="#FFA002"/>
</g>
<defs>
<clipPath id="clip0_29_58">
<rect width="47" height="47" fill="white" transform="translate(13 14)"/>
</clipPath>
</defs>
</svg>
