<svg width="74" height="74" viewBox="0 0 74 74" fill="none" xmlns="http://www.w3.org/2000/svg">
<circle cx="37" cy="37" r="37" fill="#E1F1FF"/>
<path d="M53.5228 57.0929C51.5095 46.4957 51.5966 46.9469 51.5867 46.9033C51.3227 45.5638 50.5805 44.4517 49.3772 43.7549C48.8144 43.4282 48.4898 43.3773 48.2061 43.2802L43.2601 41.4793L41.6117 40.2942V38.9499C44.0222 37.4487 45.5568 34.8635 45.8374 32.0659C47.8517 32.1638 49.2556 30.1456 48.411 28.3787V22.7221C48.411 18.6314 46.2888 17.2083 45.6404 16.8691C42.4678 12.8989 36.5436 11.8806 32.0525 14.2964L32.0439 14.3009C31.9669 14.3484 31.0413 14.7973 29.9016 15.7963C29.625 16.047 29.5948 16.4852 29.8339 16.775C30.0734 17.0653 30.4915 17.0963 30.7675 16.846C35.1659 12.9745 41.6942 13.9693 44.7123 17.8704C44.7866 17.9663 44.8771 18.0371 44.9875 18.0804C45.0732 18.1165 47.0873 19.005 47.0873 22.7221V27.1013C46.72 26.9383 46.3174 26.8548 45.8883 26.8674V24.5978C45.8883 24.022 45.4746 23.5462 44.9259 23.4907C43.8136 23.3781 43.1903 22.6183 42.8632 22.001C42.4539 21.2282 41.4767 21.043 40.836 21.617C37.8846 24.2617 34.4863 24.396 32.1553 24.0436C30.3945 23.7771 28.7568 25.0344 28.4718 26.8683C28.0432 26.8489 27.6198 26.9284 27.2305 27.1012C27.233 24.7123 26.9701 22.1131 28.8339 19.1346C29.0339 18.8138 28.9479 18.3839 28.6418 18.1742C28.3358 17.9645 27.9256 18.0545 27.7256 18.3755C25.1891 22.4499 26.0966 26.1007 25.9065 28.3786C25.0624 30.1448 26.4645 32.1638 28.4801 32.0657C28.8091 35.3606 30.7453 37.256 30.7913 37.3385L30.7914 37.3386C31.135 37.684 31.7522 38.4055 32.9552 39.1006V40.2939L31.307 41.479C24.8564 43.8279 25.5111 43.5429 24.9871 43.8785C23.9966 44.5181 23.31 45.4963 23.0239 46.7007C22.9675 46.9388 23.0611 46.4889 21.0442 57.0926C21.0036 57.3068 20.9822 57.7243 21.0187 58.0784C21.1682 59.5345 22.1533 60.3696 23.7215 60.3696H41.9098C42.2754 60.3696 42.5717 60.059 42.5717 59.6757C42.5717 59.2924 42.2754 58.9818 41.9098 58.9818H28.3763V52.6241C28.3763 52.2408 28.0799 51.9302 27.7144 51.9302C27.3488 51.9302 27.0525 52.2408 27.0525 52.6241V58.9819H23.7213C22.6835 58.9819 22.1961 58.5153 22.3463 57.3437C24.1576 48.0656 24.1615 47.3169 24.4578 46.5567C24.5094 46.4809 24.7948 45.4103 26.1942 44.7875C26.3389 44.7253 26.2487 44.767 26.7463 44.608C26.777 44.5988 26.6253 44.6528 29.0025 43.7876L30.588 46.8559C30.7621 47.1928 31.1637 47.3182 31.4853 47.1355C31.8068 46.9529 31.9262 46.5318 31.752 46.1948L30.2697 43.3261L31.2834 42.9569C31.7721 43.9027 36.0989 52.2753 36.5692 53.1854C36.8595 53.749 37.5985 53.7771 37.939 53.2849C38.0007 53.1958 37.6483 53.859 43.2751 42.9538L44.2886 43.3228L38.9301 53.7135C38.2237 55.0833 36.3457 55.0834 35.6384 53.715L33.2235 49.0417C33.0492 48.7048 32.6477 48.5793 32.3261 48.7621C32.0047 48.9448 31.8853 49.3658 32.0594 49.7028L34.4745 54.3762C35.6825 56.7133 38.8892 56.7112 40.0947 54.3736L45.5556 43.7842C47.9275 44.6475 47.7884 44.5982 47.8191 44.6075C48.2857 44.7565 48.2338 44.7278 48.3712 44.7868C48.8774 45.0128 49.1795 45.2736 49.1707 45.2668C49.6897 45.7056 50.0476 46.2126 50.2387 46.9591C50.2701 47.0775 52.2351 57.2909 52.2431 57.6355C52.2628 58.5067 51.904 58.9819 50.8459 58.9819H47.5145V52.6241C47.5145 52.2408 47.2182 51.9302 46.8526 51.9302C46.4869 51.9302 46.1907 52.2408 46.1907 52.6241V58.9819H44.9984C44.6328 58.9819 44.3365 59.2925 44.3365 59.6758C44.3365 60.0591 44.6328 60.3697 44.9984 60.3697H50.8457C52.4138 60.3697 53.3989 59.5346 53.5482 58.0793C53.5843 57.7321 53.5631 57.3057 53.5228 57.0929ZM45.8882 28.2556C46.6515 28.2133 47.3347 28.7523 47.3347 29.4673C47.3347 30.1894 46.6441 30.7211 45.8882 30.6791V28.2556ZM28.4294 30.6791C27.6662 30.7215 26.9829 30.1824 26.9829 29.4674C26.9829 28.7453 27.6735 28.2137 28.4294 28.2556V30.6791ZM31.9661 25.4171C34.568 25.8108 38.368 25.6542 41.6959 22.6719L41.7057 22.6746C42.3451 23.8815 43.3538 24.6434 44.5644 24.841V27.2982L43.8091 27.7655C43.498 27.2957 42.9805 26.9869 42.395 26.9869H39.3659C38.6515 26.9869 38.0378 27.4459 37.7779 28.0971H36.5398C36.2799 27.4459 35.666 26.9869 34.9516 26.9869H31.9225C31.337 26.9869 30.8193 27.2957 30.5085 27.7655L29.7566 27.3003C29.8218 26.1141 30.8447 25.2471 31.9661 25.4171ZM42.7922 28.791V30.1729C42.7922 30.7748 42.325 31.2644 41.7508 31.2644H40.01C39.4358 31.2644 38.9687 30.7747 38.9687 30.1729V28.791H38.9688C38.9688 28.5654 39.1507 28.3747 39.3659 28.3747H42.395C42.6103 28.3747 42.7922 28.5654 42.7922 28.791ZM35.3488 28.791V30.1729C35.3488 30.7748 34.8817 31.2644 34.3075 31.2644H32.5666C31.9924 31.2644 31.5254 30.7747 31.5254 30.1729V28.791C31.5254 28.5654 31.7073 28.3747 31.9225 28.3747H34.9516C35.1669 28.3747 35.3488 28.5654 35.3488 28.791ZM31.5384 36.134C29.3961 33.5165 29.8091 30.9749 29.7533 28.9097L30.2017 29.1872V30.1729C30.2017 31.5399 31.2627 32.6522 32.5667 32.6522H34.3076C35.6117 32.6522 36.6726 31.54 36.6726 30.1729V29.4848H37.6453V30.1729C37.6453 31.5399 38.7062 32.6522 40.0103 32.6522H41.7512C43.0553 32.6522 44.1163 31.54 44.1163 30.1729V29.1872L44.5647 28.9097V31.0794C44.5647 35.2065 41.4487 38.7923 37.1591 38.8417C37.1502 38.8416 37.061 38.841 37.0699 38.8411C35.9256 38.8289 35.0463 38.5215 35.1353 38.5477C33.8364 38.17 32.5976 37.3905 31.5384 36.134ZM37.2835 43.8969L34.2791 40.3923V39.7193C35.6608 40.2224 37.0936 40.338 38.4278 40.1341C38.8 40.0774 39.2007 39.9844 39.4351 39.915C39.4908 39.896 39.8104 39.8159 40.288 39.6233V40.3924L37.2835 43.8969ZM38.029 46.3698L37.7365 47.0011H36.8306L36.538 46.3698L37.2835 45.7958L38.029 46.3698ZM35.5391 48.279L35.1176 47.4633L35.4533 47.2049L35.7043 47.7465L35.5391 48.279ZM34.4857 46.2282L32.4746 42.3284L33.5147 41.5765L36.303 44.8291C36.1419 44.9528 34.6439 46.1064 34.4857 46.2282ZM37.2834 51.6541L36.4091 49.9623L36.8971 48.3888H37.6703L38.1574 49.9595C37.8803 50.4965 37.6231 50.9953 37.2834 51.6541ZM39.0265 48.2739L38.8629 47.7464L39.1138 47.2048L39.4459 47.4605L39.0265 48.2739ZM40.0815 46.2282C39.9095 46.0958 38.4716 44.9887 38.2643 44.8291L41.0526 41.5765L42.0927 42.3284C41.4247 43.6234 40.515 45.3875 40.0815 46.2282Z" fill="#3F7AFC" stroke="#3F7AFC" stroke-width="0.5"/>
</svg>
